<!-- icon666.com - MILLIONS OF FREE VECTOR ICONS --><svg version="1.1" id="Capa_1" xmlns="http://www.w3.org/2000/svg" xmlns:xlink="http://www.w3.org/1999/xlink" x="0px" y="0px" viewBox="0 0 512 512" style="enable-background:new 0 0 512 512;" xml:space="preserve"><polyline style="fill:#FFA65C;" points="162.267,10 421.53,10 421.53,397.311 162.267,397.311 "></polyline><path style="fill:#E24C39;" d="M162.267,397.311H90.47V53.196C90.47,29.339,109.808,10,133.663,10h28.604v283.543"></path><path style="fill:#FFF2E9;" d="M277.5,440.507H133.663c-23.855,0-43.193-19.34-43.193-43.196l0,0 c0-23.856,19.338-43.196,43.193-43.196H421.53v86.392H375.5"></path><path d="M157.62,407.31c-0.66,0-1.31-0.06-1.96-0.19c-0.64-0.13-1.27-0.33-1.87-0.58c-0.6-0.25-1.18-0.55-1.73-0.91 c-0.54-0.37-1.06-0.79-1.52-1.25s-0.88-0.97-1.24-1.52c-0.36-0.54-0.67-1.12-0.92-1.72c-0.25-0.61-0.44-1.24-0.57-1.87 c-0.13-0.65-0.2-1.31-0.2-1.96s0.07-1.31,0.2-1.95c0.13-0.64,0.32-1.27,0.57-1.87c0.25-0.61,0.56-1.19,0.92-1.73 c0.36-0.55,0.78-1.06,1.24-1.52s0.98-0.88,1.52-1.24c0.55-0.36,1.13-0.67,1.73-0.92c0.6-0.25,1.23-0.44,1.87-0.57 c1.29-0.26,2.62-0.26,3.91,0c0.64,0.13,1.27,0.32,1.87,0.57s1.18,0.56,1.73,0.92c0.54,0.36,1.05,0.78,1.52,1.24 c0.46,0.46,0.87,0.97,1.24,1.52c0.36,0.54,0.67,1.12,0.92,1.73c0.25,0.6,0.44,1.23,0.57,1.87c0.13,0.64,0.19,1.3,0.19,1.95 c0,0.65-0.06,1.31-0.19,1.96c-0.13,0.63-0.32,1.26-0.57,1.87c-0.25,0.6-0.56,1.18-0.92,1.72c-0.37,0.55-0.78,1.06-1.24,1.52 c-0.47,0.46-0.98,0.88-1.52,1.25c-0.55,0.36-1.13,0.66-1.73,0.91s-1.23,0.45-1.87,0.58C158.92,407.25,158.27,407.31,157.62,407.31z"></path><polygon style="fill:#26937E;" points="371.79,502 326.85,472.034 281.911,502 281.911,397.311 371.79,397.311 "></polygon><path style="fill:#F6DC84;" d="M377.699,130.389l-48.711,14.027c0,0-34.923-35.508-37.089-35.508s-37.091,35.508-37.091,35.508 l-48.71-14.027l10.498,99.865h150.605L377.699,130.389z"></path><polygon style="fill:#F0CC67;" points="216.596,230.253 216.868,262.87 366.93,262.87 367.201,230.253 "></polygon><path d="M421.53,0H133.663C104.333,0,80.47,23.864,80.47,53.196v344.116c0,29.332,23.862,53.196,53.193,53.196H271.91V502 c0,3.688,2.03,7.077,5.282,8.817c3.252,1.74,7.198,1.549,10.266-0.497l39.392-26.267l39.392,26.267 c1.674,1.116,3.608,1.68,5.548,1.68c1.618,0,3.239-0.392,4.718-1.183c3.252-1.74,5.282-5.129,5.282-8.817v-51.493h39.74 c5.523,0,10-4.477,10-10V10C431.53,4.477,427.053,0,421.53,0z M133.663,20h18.604v273.543c0,5.523,4.477,10,10,10s10-4.477,10-10V20 H411.53v324.115H133.663c-12.544,0-24.088,4.365-33.193,11.656V53.196C100.47,34.892,115.36,20,133.663,20z M133.663,430.507 c-18.303,0-33.193-14.892-33.193-33.196c0-18.305,14.89-33.196,33.193-33.196H411.53v23.196H191.283c-5.523,0-10,4.477-10,10 s4.477,10,10,10h80.627v23.196L133.663,430.507L133.663,430.507z M361.79,483.313l-29.392-19.599c-1.68-1.12-3.614-1.68-5.548-1.68 s-3.868,0.56-5.548,1.68l-29.392,19.599v-76.001h69.879v76.001H361.79z M381.79,430.507v-23.196h29.74v23.196L381.79,430.507 L381.79,430.507z"></path><path d="M206.6,230.821l0.268,32.133c0.045,5.49,4.509,9.916,9.999,9.916H366.93c5.49,0,9.954-4.427,10-9.917l0.267-32.133 l10.447-99.386c0.348-3.308-0.972-6.573-3.521-8.709c-2.55-2.137-5.995-2.866-9.191-1.945l-42.994,12.38 c-33.796-34.25-35.341-34.253-40.038-34.253c-4.696,0-6.242,0.003-40.04,34.253l-42.994-12.381c-3.196-0.919-6.641-0.191-9.19,1.945 c-2.55,2.137-3.87,5.401-3.522,8.71L206.6,230.821z M357.013,252.871H226.785l-0.105-12.618h130.438L357.013,252.871z M252.042,154.025c3.527,1.015,7.324,0.018,9.896-2.597c10.882-11.063,23.094-23.155,29.961-29.569 c6.867,6.414,19.078,18.506,29.96,29.569c2.572,2.615,6.37,3.612,9.897,2.597l34.446-9.919l-8.004,76.146H225.6l-8.004-76.147 L252.042,154.025z"></path><circle style="fill:#56BFA1;" cx="291.9" cy="181.32" r="20.471"></circle><path d="M291.898,211.788c-16.802,0-30.471-13.67-30.471-30.472s13.669-30.472,30.471-30.472s30.471,13.67,30.471,30.472 C322.369,198.118,308.7,211.788,291.898,211.788z M291.898,170.844c-5.773,0-10.471,4.698-10.471,10.472s4.697,10.472,10.471,10.472 c5.773,0,10.471-4.698,10.471-10.472S297.672,170.844,291.898,170.844z"></path></svg>